<svg width="26" height="26" viewBox="0 0 26 26" fill="none" xmlns="http://www.w3.org/2000/svg">
<path fill-rule="evenodd" clip-rule="evenodd" d="M25.1221 5.31567C25.1221 7.73192 23.1633 9.69067 20.7471 9.69067C19.3705 9.69067 18.1425 9.05495 17.3405 8.06107C17.3123 8.07914 17.283 8.09589 17.2524 8.11119L8.8303 12.3222C8.79998 12.3374 8.76923 12.3507 8.73818 12.3623C8.82561 12.7073 8.87207 13.0686 8.87207 13.4407C8.87207 13.8128 8.82561 14.1741 8.73817 14.519C8.76923 14.5306 8.79998 14.544 8.8303 14.5591L17.2524 18.7702C17.283 18.7855 17.3123 18.8022 17.3405 18.8203C18.1425 17.8264 19.3705 17.1907 20.7471 17.1907C23.1633 17.1907 25.1221 19.1494 25.1221 21.5657C25.1221 23.9819 23.1633 25.9407 20.7471 25.9407C18.3308 25.9407 16.3721 23.9819 16.3721 21.5657C16.3721 21.1936 16.4185 20.8323 16.506 20.4873C16.4749 20.4757 16.4442 20.4624 16.4138 20.4472L7.99178 16.2362C7.96118 16.2209 7.93179 16.2041 7.90364 16.1861C7.10165 17.1799 5.8736 17.8157 4.49707 17.8157C2.08082 17.8157 0.12207 15.8569 0.12207 13.4407C0.12207 11.0244 2.08082 9.06567 4.49707 9.06567C5.8736 9.06567 7.10166 9.7014 7.90364 10.6953C7.93179 10.6772 7.96118 10.6605 7.99178 10.6452L16.4138 6.43414C16.4442 6.41898 16.4749 6.40562 16.506 6.39401C16.4185 6.04907 16.3721 5.6878 16.3721 5.31567C16.3721 2.89943 18.3308 0.940674 20.7471 0.940674C23.1633 0.940674 25.1221 2.89943 25.1221 5.31567Z" fill="#FF4F00"/>
</svg>
