<svg width="44" height="43" viewBox="0 0 44 43" fill="none" xmlns="http://www.w3.org/2000/svg">
<path fill-rule="evenodd" clip-rule="evenodd" d="M22.0112 42.9205C33.8471 42.9205 43.442 33.3256 43.442 21.4897C43.442 9.65375 33.8471 0.0588379 22.0112 0.0588379C10.1752 0.0588379 0.580322 9.65375 0.580322 21.4897C0.580322 33.3256 10.1752 42.9205 22.0112 42.9205ZM23.6185 10.7743C23.6185 9.88657 22.8989 9.16695 22.0112 9.16695C21.1235 9.16695 20.4039 9.88657 20.4039 10.7743V21.4897C20.4039 22.1815 20.8466 22.7957 21.5029 23.0145L27.9321 25.1576C28.7743 25.4383 29.6845 24.9832 29.9653 24.141C30.246 23.2989 29.7908 22.3887 28.9487 22.1079L23.6185 20.3312V10.7743Z" fill="#FF4F00"/>
</svg>
